HIERARCHY
ROOT joint_Root
{
	OFFSET 0.0 0.0 0.0
	CHANNELS 6 Xposition Yposition Zposition Zrotation Xrotation Yrotation 
	JOINT Hips
	{
		OFFSET 4.5925 91.4895 -427.239
		CHANNELS 6 Xposition Yposition Zposition Zrotation Xrotation Yrotation 
		JOINT Spine
		{
			OFFSET 15.7357 0.0 0.0
			CHANNELS 6 Xposition Yposition Zposition Zrotation Xrotation Yrotation 
			JOINT Chest
			{
				OFFSET 8.98455 -0.406207 0.0
				CHANNELS 6 Xposition Yposition Zposition Zrotation Xrotation Yrotation 
				JOINT Neck
				{
					OFFSET 16.3773 0.0 0.0
					CHANNELS 6 Xposition Yposition Zposition Zrotation Xrotation Yrotation 
					JOINT Head
					{
						OFFSET 6.45672 0.0 0.0
						CHANNELS 6 Xposition Yposition Zposition Zrotation Xrotation Yrotation 
						End Site
						{
							OFFSET 0.0 0.0 0.0
						}
					}
				}
				JOINT Shoulder_L
				{
					OFFSET 12.9942 -0.242716 4.98039
					CHANNELS 6 Xposition Yposition Zposition Zrotation Xrotation Yrotation 
					JOINT UpperArm_L
					{
						OFFSET 5.34809 0.0 0.0
						CHANNELS 6 Xposition Yposition Zposition Zrotation Xrotation Yrotation 
						JOINT LowerArm_L
						{
							OFFSET 24.3286 1.87007e-05 0.0
							CHANNELS 6 Xposition Yposition Zposition Zrotation Xrotation Yrotation 
							JOINT Hand_L
							{
								OFFSET 22.2916 0.0 0.0
								CHANNELS 6 Xposition Yposition Zposition Zrotation Xrotation Yrotation 
								End Site
								{
									OFFSET 0.0 0.0 0.0
								}
							}
						}
					}
				}
				JOINT Shoulder_R
				{
					OFFSET 12.9945 -0.242716 -4.98039
					CHANNELS 6 Xposition Yposition Zposition Zrotation Xrotation Yrotation 
					JOINT UpperArm_R
					{
						OFFSET -5.34813 0.0 0.0
						CHANNELS 6 Xposition Yposition Zposition Zrotation Xrotation Yrotation 
						JOINT LowerArm_R
						{
							OFFSET -24.3289 0.000322201 0.0
							CHANNELS 6 Xposition Yposition Zposition Zrotation Xrotation Yrotation 
							JOINT Hand_R
							{
								OFFSET -22.2915 -0.000108084 0.0
								CHANNELS 6 Xposition Yposition Zposition Zrotation Xrotation Yrotation 
								End Site
								{
									OFFSET 0.0 0.0 0.0
								}
							}
						}
					}
				}
			}
		}
		JOINT UpperLeg_L
		{
			OFFSET -2.19248 -6.46944 0.0
			CHANNELS 6 Xposition Yposition Zposition Zrotation Xrotation Yrotation 
			JOINT LowerLeg_L
			{
				OFFSET 39.0811 0.0 -1.23785e-05
				CHANNELS 6 Xposition Yposition Zposition Zrotation Xrotation Yrotation 
				JOINT Foot_L
				{
					OFFSET 40.9854 0.0 -1.26872e-05
					CHANNELS 6 Xposition Yposition Zposition Zrotation Xrotation Yrotation 
					JOINT Toes_L
					{
						OFFSET 11.7543 0.0 0.0
						CHANNELS 6 Xposition Yposition Zposition Zrotation Xrotation Yrotation 
						End Site
						{
							OFFSET 0.0 0.0 0.0
						}
					}
				}
			}
		}
		JOINT UpperLeg_R
		{
			OFFSET -2.19251 6.46944 0.0
			CHANNELS 6 Xposition Yposition Zposition Zrotation Xrotation Yrotation 
			JOINT LowerLeg_R
			{
				OFFSET -39.0811 -0.00228153 -0.0401928
				CHANNELS 6 Xposition Yposition Zposition Zrotation Xrotation Yrotation 
				JOINT Foot_R
				{
					OFFSET -40.9854 0.0 0.0
					CHANNELS 6 Xposition Yposition Zposition Zrotation Xrotation Yrotation 
					JOINT Toes_R
					{
						OFFSET -11.7543 0.0 0.0
						CHANNELS 6 Xposition Yposition Zposition Zrotation Xrotation Yrotation 
						End Site
						{
							OFFSET 0.0 0.0 0.0
						}
					}
				}
			}
		}
	}
}
MOTION
Frames:	4
Frame Time:	0.0333333
0.000000 0.000000 0.000000 0.000000 0.000000 -0.000000 -1.616270 90.693900 -7.063650 89.096600 -2.655330 8.958280 15.735700 0.000005 -0.000001 88.379100 76.777000 -88.550200 8.984550 -0.406207 -0.000000 18.669500 -0.749554 -0.219736 16.377300 -0.000001 -0.000001 5.596450 -4.271960 2.690410 6.456720 -0.000001 -0.000000 -8.551690 -3.533660 -1.149740 12.994200 -0.242716 4.980390 -90.658000 3.797700 -80.162500 5.348090 -0.000007 -0.000001 -49.000400 41.895500 -38.134300 24.328600 0.000019 0.000005 6.837060 17.538700 -21.696100 22.291600 -0.000001 0.000005 11.420800 5.271190 0.865910 12.994500 -0.242716 -4.980390 89.625700 8.055060 -87.330900 -5.348130 -0.000001 -0.000004 -57.548400 31.608100 -27.684300 -24.328900 0.000322 -0.000009 2.856890 6.243930 -24.655300 -22.291500 -0.000108 -0.000004 16.388900 5.379220 -2.273760 -2.192480 -6.469440 -0.000000 -174.848000 -8.391360 -7.285500 39.081100 -0.000007 -0.000012 -0.167634 0.258629 32.950100 40.985400 -0.000006 -0.000013 -0.788226 4.136160 -66.640700 11.754300 -0.000000 0.000003 -0.000058 -0.000644 -16.602500 -2.192510 6.469440 -0.000001 177.648000 18.599900 173.828000 -39.081100 -0.002282 -0.040193 -0.152807 0.246929 32.300500 -40.985400 0.000008 0.000006 4.220890 11.300900 -67.491200 -11.754300 -0.000006 -0.000006 -0.003828 -0.049636 -18.592100
0.000000 0.000000 0.000000 0.000000 0.000000 -0.000000 -1.607070 90.697700 -7.084960 89.090700 -2.656030 8.963290 15.735700 0.000005 -0.000001 88.349100 76.805300 -88.519400 8.984550 -0.406207 -0.000000 18.612500 -0.761464 -0.216592 16.377300 -0.000001 -0.000001 5.679190 -4.245080 2.676700 6.456720 -0.000001 -0.000000 -8.505640 -3.490900 -1.193350 12.994200 -0.242716 4.980390 -90.642900 3.716290 -80.178700 5.348090 -0.000007 -0.000001 -49.094500 41.943900 -38.076100 24.328600 0.000019 0.000005 6.819060 17.523200 -21.660600 22.291600 -0.000001 0.000005 11.337900 5.270410 0.887016 12.994500 -0.242716 -4.980390 89.623000 7.996760 -87.292000 -5.348130 -0.000001 -0.000004 -57.828200 31.115400 -27.243200 -24.328900 0.000322 -0.000009 3.209330 6.626220 -25.923700 -22.291500 -0.000108 -0.000004 16.578300 5.382200 -2.367530 -2.192480 -6.469440 -0.000000 -174.846000 -8.380690 -7.288070 39.081100 -0.000007 -0.000012 -0.168952 0.260812 32.935100 40.985400 -0.000006 -0.000013 -0.782699 4.146020 -66.619600 11.754300 -0.000000 0.000003 -0.000070 -0.000759 -16.606900 -2.192510 6.469440 -0.000001 177.634000 18.650100 173.838000 -39.081100 -0.002282 -0.040193 -0.151470 0.245072 32.273100 -40.985400 0.000008 0.000006 4.193960 11.359900 -67.459600 -11.754300 -0.000006 -0.000006 -0.003785 -0.049190 -18.573900
0.000000 0.000000 0.000000 0.000000 0.000000 -0.000000 -1.593920 90.699900 -7.094260 89.087500 -2.667590 8.981580 15.735700 0.000005 -0.000001 88.337100 76.822400 -88.506500 8.984550 -0.406207 -0.000000 18.578000 -0.765835 -0.214383 16.377300 -0.000001 -0.000001 5.765780 -4.207210 2.620010 6.456720 -0.000001 -0.000000 -8.486010 -3.452130 -1.201610 12.994200 -0.242716 4.980390 -90.625400 3.620170 -80.192500 5.348090 -0.000007 -0.000001 -49.290000 41.889700 -37.958500 24.328600 0.000019 0.000005 6.770990 17.424100 -21.628200 22.291600 -0.000001 0.000005 11.379800 5.273890 0.792626 12.994500 -0.242716 -4.980390 89.616600 7.925370 -87.221600 -5.348130 -0.000001 -0.000004 -58.402200 30.096900 -26.599800 -24.328900 0.000322 -0.000009 3.728810 7.117620 -27.750100 -22.291500 -0.000108 -0.000004 16.904200 5.387990 -2.551100 -2.192480 -6.469440 -0.000000 -174.850000 -8.393080 -7.272100 39.081100 -0.000007 -0.000012 -0.166333 0.256827 32.929200 40.985400 -0.000006 -0.000013 -0.776069 4.134800 -66.611100 11.754300 -0.000000 0.000003 -0.000062 -0.000679 -16.603800 -2.192510 6.469440 -0.000001 177.618000 18.666100 173.857000 -39.081100 -0.002282 -0.040193 -0.151581 0.245396 32.257600 -40.985400 0.000008 0.000006 4.182920 11.421400 -67.440200 -11.754300 -0.000006 -0.000006 -0.004077 -0.052242 -18.698200
0.000000 0.000000 0.000000 0.000000 0.000000 -0.000000 -1.589530 90.702900 -7.117330 89.094100 -2.662910 8.992580 15.735700 0.000005 -0.000001 88.252000 76.844200 -88.418000 8.984550 -0.406207 -0.000000 18.533500 -0.802558 -0.201762 16.377300 -0.000001 -0.000001 5.852120 -4.161960 2.575700 6.456720 -0.000001 -0.000000 -8.477140 -3.384140 -1.284190 12.994200 -0.242716 4.980390 -90.614600 3.552920 -80.179500 5.348090 -0.000007 -0.000001 -49.458400 41.852200 -37.803500 24.328600 0.000019 0.000005 6.843420 17.540900 -21.712200 22.291600 -0.000001 0.000005 11.444600 5.272790 0.822504 12.994500 -0.242716 -4.980390 89.607200 7.820600 -87.115700 -5.348130 -0.000001 -0.000004 -58.938700 28.998000 -25.988300 -24.328900 0.000322 -0.000009 4.050020 7.048050 -29.993300 -22.291500 -0.000108 -0.000004 17.523600 5.391120 -2.651210 -2.192480 -6.469440 -0.000000 -174.855000 -8.364970 -7.267730 39.081100 -0.000007 -0.000012 -0.167344 0.258595 32.908300 40.985400 -0.000006 -0.000013 -0.782742 4.131860 -66.585100 11.754300 -0.000000 0.000003 -0.000057 -0.000638 -16.602300 -2.192510 6.469440 -0.000001 177.616000 18.695800 173.851000 -39.081100 -0.002282 -0.040193 -0.150759 0.244189 32.247400 -40.985400 0.000008 0.000006 4.181890 11.398500 -67.412000 -11.754300 -0.000006 -0.000006 -0.003898 -0.050373 -18.622100
